# xmcd CD database file
#
# Track frame offsets:
#	150
#	17305
#	30485
#	40742
#	55235
#	65988
#	78423
#	89016
#	100294
#	110526
#	125422
#	134705
#	146168
#	157685
#	170092
#	183385
#	195497
#	207843
#	222392
#	234998
#	248952
#	261388
#	271530
#	283968
#
# Disc length: 3914 seconds
#
# Revision: 0
# Processed by: cddbd v1.5.1PL0 Copyright (c) Steve Scherf et al.
# Submitted via: CDex 1.51
#
DISCID=650f4818
DTITLE=Las Jilguerias - 24 exitos
DYEAR=1900
DGENRE=Country
TTITLE0=Una aventura
TTITLE1=Te vas angel mio
TTITLE2=la traicionera
TTITLE3=tristes recuerdos
TTITLE4=tragos amargos
TTITLE5=despedida con mariachi
TTITLE6=el chubasco
TTITLE7=el bato gacho
TTITLE8=en las cantinas
TTITLE9=el muchacho alegre
TTITLE10=madre abandonada
TTITLE11=mujer paseada
TTITLE12=el novillo despuntado
TTITLE13=concha la mojada
TTITLE14=busca otro amor
TTITLE15=anda paloma y dile
TTITLE16=adios amigos
TTITLE17=calla mujer calla
TTITLE18=la martina
TTITLE19=el otro palomo
TTITLE20=ay que ventanas tan altas
TTITLE21=de mañana en adelante
TTITLE22=el descalzo
TTITLE23=pa que me echaste al mundo
EXTD=
EXTT0=
EXTT1=
EXTT2=
EXTT3=
EXTT4=
EXTT5=
EXTT6=
EXTT7=
EXTT8=
EXTT9=
EXTT10=
EXTT11=
EXTT12=
EXTT13=
EXTT14=
EXTT15=
EXTT16=
EXTT17=
EXTT18=
EXTT19=
EXTT20=
EXTT21=
EXTT22=
EXTT23=
PLAYORDER=
